<?xml version="1.0" standalone="no"?>
<!DOCTYPE svg PUBLIC "-//W3C//DTD SVG 20010904//EN"
 "http://www.w3.org/TR/2001/REC-SVG-20010904/DTD/svg10.dtd">
<svg version="1.0" xmlns="http://www.w3.org/2000/svg"
 width="1000.000000pt" height="1000.000000pt" viewBox="0 0 1000.000000 1000.000000"
 preserveAspectRatio="xMidYMid meet">

<g transform="translate(0.000000,1000.000000) scale(0.100000,-0.100000)"
fill="#FFFFFF" stroke="none">
<path d="M8650 9269 c-103 -29 -204 -113 -246 -203 -32 -70 -33 -159 -1 -207
33 -50 100 -81 162 -76 96 8 145 30 222 100 168 154 141 374 -47 391 -30 3
-71 1 -90 -5z"/>
<path d="M8105 9193 c-49 -16 -137 -87 -171 -137 -15 -22 -29 -60 -33 -89 -18
-136 45 -208 177 -203 105 3 191 107 197 239 7 141 -68 225 -170 190z"/>
<path d="M6487 9069 c-122 -28 -227 -178 -227 -324 0 -112 51 -175 146 -183
69 -6 128 22 189 90 62 70 87 127 91 218 4 63 1 82 -18 120 -35 67 -102 96
-181 79z"/>
<path d="M8934 8925 c-132 -42 -237 -174 -238 -300 0 -72 20 -114 67 -144 107
-66 287 8 364 149 74 134 41 267 -72 299 -49 13 -68 13 -121 -4z"/>
<path d="M6898 8920 c-15 -4 -29 -5 -32 -2 -3 3 -6 1 -6 -5 0 -6 -11 -14 -24
-17 -13 -3 -46 -30 -74 -60 -98 -107 -130 -261 -78 -371 13 -27 32 -57 42 -66
25 -21 79 -39 118 -39 69 1 160 68 211 155 47 79 68 212 43 272 -6 15 -12 31
-12 35 -1 3 -11 20 -24 37 -37 50 -110 78 -164 61z"/>
<path d="M5991 8796 c-80 -29 -132 -152 -125 -293 4 -97 31 -159 78 -178 146
-61 260 71 243 279 -13 149 -96 230 -196 192z"/>
<path d="M8255 8730 c-61 -20 -199 -32 -251 -23 -132 24 -254 -80 -254 -215 1
-61 16 -79 124 -143 49 -28 109 -70 133 -92 40 -36 55 -62 113 -191 55 -122
123 -176 223 -176 43 0 54 4 81 33 39 41 62 114 76 237 6 52 19 113 29 135 38
82 54 142 58 220 3 70 1 85 -19 119 -13 23 -44 52 -72 70 -43 26 -61 30 -130
33 -45 1 -94 -2 -111 -7z"/>
<path d="M6420 8444 c-80 -37 -102 -51 -167 -106 -42 -36 -108 -77 -170 -108
-211 -102 -251 -190 -139 -308 50 -54 63 -57 311 -86 68 -8 131 -47 248 -153
57 -52 72 -58 132 -54 111 9 204 178 154 281 -33 69 -51 137 -69 258 -21 138
-43 187 -110 245 -58 49 -125 60 -190 31z"/>
<path d="M8788 8350 c-126 -39 -210 -128 -202 -212 4 -38 41 -106 65 -119 27
-14 116 -13 171 2 78 20 208 98 208 123 0 4 7 15 16 24 25 24 15 124 -16 157
-44 47 -140 57 -242 25z"/>
<path d="M6975 8293 c-152 -61 -212 -186 -149 -311 30 -61 63 -82 129 -82 87
0 153 43 204 135 61 109 64 195 9 247 -26 25 -38 28 -92 27 -33 0 -79 -7 -101
-16z"/>
<path d="M7892 7472 c-192 -83 -287 -327 -170 -441 29 -28 105 -54 132 -46 6
2 25 6 42 8 50 7 102 36 161 90 150 137 160 343 20 402 -53 22 -114 18 -185
-13z"/>
<path d="M7393 7359 c-45 -13 -147 -110 -172 -164 -38 -82 -25 -203 29 -250
32 -29 152 -33 200 -7 105 57 147 219 90 349 -28 64 -83 91 -147 72z"/>
<path d="M5672 7294 c-102 -51 -163 -157 -166 -288 -1 -102 18 -151 77 -189
102 -66 235 -2 302 146 79 172 9 357 -134 357 -15 0 -51 -12 -79 -26z"/>
<path d="M6089 7200 c-83 -44 -154 -162 -166 -275 -11 -108 37 -224 109 -261
40 -21 108 -20 153 2 43 20 107 90 135 148 54 113 42 275 -26 352 -49 54 -139
69 -205 34z"/>
<path d="M8260 7184 c-88 -34 -149 -86 -194 -167 -63 -112 -61 -210 4 -278 25
-27 45 -39 55 -36 8 4 15 3 15 -1 0 -14 54 -12 107 3 68 20 158 102 198 180
51 102 37 229 -31 279 -26 18 -124 31 -154 20z"/>
<path d="M5234 6971 c-63 -38 -95 -111 -95 -214 0 -107 29 -198 78 -243 43
-40 153 -27 194 23 67 81 71 250 8 361 -49 86 -119 114 -185 73z"/>
<path d="M7540 6894 c-85 -26 -137 -36 -200 -38 -99 -4 -145 -20 -185 -67 -59
-71 -76 -149 -46 -222 10 -27 19 -32 181 -104 62 -28 120 -73 148 -116 15 -23
29 -44 32 -47 3 -3 16 -27 30 -54 36 -69 93 -131 140 -150 163 -65 234 13 239
264 2 63 11 127 27 190 63 241 3 364 -184 376 -56 3 -86 -2 -182 -32z"/>
<path d="M5704 6675 c-48 -24 -103 -72 -198 -173 -27 -29 -53 -52 -59 -52 -19
0 -143 -88 -176 -125 -63 -72 -64 -120 -6 -191 59 -71 96 -83 269 -85 174 -1
188 -5 325 -99 68 -46 97 -60 125 -60 98 0 176 96 176 218 0 49 -5 66 -28 98
-30 41 -63 127 -108 278 -22 74 -34 97 -72 138 -77 82 -156 99 -248 53z"/>
<path d="M6355 6629 c-111 -25 -204 -110 -226 -206 -16 -73 40 -190 102 -212
93 -32 194 19 247 124 42 83 51 213 19 256 -27 35 -84 51 -142 38z"/>
<path d="M8230 6610 c-127 -23 -241 -111 -264 -203 -16 -68 38 -161 101 -173
41 -8 176 27 204 52 8 8 20 14 25 14 19 0 96 75 115 111 64 127 -27 228 -181
199z"/>
<path d="M6309 5547 c-101 -42 -187 -132 -219 -231 -18 -56 -9 -145 19 -184
70 -99 242 -85 366 29 223 205 98 494 -166 386z"/>
<path d="M4075 5549 c-126 -69 -198 -196 -190 -335 11 -186 194 -232 333 -84
13 14 37 54 55 90 59 121 37 270 -46 320 -36 22 -119 27 -152 9z"/>
<path d="M5781 5448 c-48 -24 -134 -106 -159 -153 -26 -47 -23 -175 4 -212 34
-46 80 -64 152 -59 52 3 70 9 100 33 77 62 111 171 88 283 -23 110 -95 153
-185 108z"/>
<path d="M4477 5422 c-110 -53 -190 -205 -181 -345 5 -73 51 -157 99 -184 105
-59 226 2 298 150 42 85 52 144 38 223 -27 143 -137 211 -254 156z"/>
<path d="M3625 5253 c-35 -8 -74 -55 -96 -112 -17 -47 -20 -72 -17 -156 3 -84
8 -108 31 -152 26 -49 29 -52 84 -63 51 -11 61 -10 99 8 30 15 51 36 71 69 26
44 28 56 28 153 0 118 -20 179 -75 232 -30 28 -69 34 -125 21z"/>
<path d="M6683 5239 c-97 -18 -181 -83 -234 -181 -28 -53 -34 -73 -34 -128 0
-82 23 -124 85 -158 52 -27 102 -25 175 7 208 92 278 408 100 451 -5 1 -19 6
-30 9 -11 4 -39 4 -62 0z"/>
<path d="M6030 5013 c-14 -2 -59 -14 -100 -25 -51 -14 -111 -22 -185 -24 -60
-1 -122 -7 -136 -12 -104 -40 -170 -202 -113 -279 17 -22 122 -86 214 -129 35
-17 95 -94 137 -177 57 -115 79 -144 128 -172 85 -49 177 -41 214 19 30 47 51
140 51 221 0 51 7 93 26 146 83 239 55 374 -86 417 -42 13 -115 20 -150 15z"/>
<path d="M4096 4933 c-70 -21 -91 -35 -196 -134 -38 -36 -98 -79 -145 -103
-43 -22 -103 -63 -133 -91 -43 -41 -54 -58 -59 -91 -6 -48 11 -88 59 -134 49
-47 88 -60 196 -65 207 -11 217 -14 358 -122 82 -62 93 -68 136 -67 99 1 180
101 179 221 0 29 -11 63 -36 109 -26 47 -44 102 -62 188 -29 138 -56 199 -108
245 -61 53 -116 66 -189 44z"/>
<path d="M4660 4828 c-19 -5 -37 -13 -40 -18 -3 -4 -19 -14 -37 -23 -17 -9
-41 -29 -52 -44 -11 -16 -25 -33 -29 -38 -15 -18 -32 -77 -32 -109 0 -45 43
-130 78 -154 59 -42 173 -21 234 44 44 47 81 140 84 212 4 72 -12 113 -53 131
-29 13 -105 13 -153 -1z"/>
<path d="M6557 4660 c-42 -11 -121 -51 -154 -77 -89 -75 -98 -199 -17 -262 74
-58 289 11 376 120 51 64 47 161 -9 203 -30 22 -136 31 -196 16z"/>
<path d="M5113 3690 c-54 -11 -88 -29 -154 -83 -139 -113 -166 -299 -56 -381
24 -18 43 -21 115 -21 78 0 92 3 137 29 126 72 197 181 197 297 -1 75 -49 139
-120 158 -42 12 -60 12 -119 1z"/>
<path d="M4519 3582 c-58 -38 -125 -106 -146 -150 -22 -46 -22 -147 -1 -188
29 -53 63 -69 150 -69 70 0 79 2 115 31 21 17 50 55 65 85 50 98 32 257 -33
303 -37 25 -98 20 -150 -12z"/>
<path d="M5389 3347 c-116 -43 -207 -148 -228 -262 -5 -25 -6 -45 -2 -45 3 0
6 -18 6 -40 1 -43 28 -81 77 -106 41 -21 130 -18 183 7 53 25 128 89 148 127
8 15 23 43 33 62 13 24 19 56 19 102 0 72 -14 102 -68 142 -33 24 -119 31
-168 13z"/>
<path d="M2795 3284 c-43 -22 -103 -83 -128 -129 -12 -22 -21 -42 -22 -45 0
-3 -4 -12 -10 -20 -17 -28 -15 -173 4 -216 30 -67 92 -105 154 -95 4 1 19 2
32 3 14 1 25 6 25 10 0 4 6 8 13 8 19 0 86 52 87 68 0 6 4 12 10 12 5 0 24 30
42 68 29 59 33 77 33 147 0 93 -22 146 -75 183 -40 27 -119 30 -165 6z"/>
<path d="M3217 3182 c-189 -93 -244 -425 -86 -529 43 -28 118 -35 160 -13 115
60 180 181 181 336 1 160 -131 266 -255 206z"/>
<path d="M4665 3129 c-56 -13 -113 -18 -190 -16 -104 2 -112 0 -152 -25 -83
-54 -125 -145 -104 -226 12 -44 31 -61 121 -109 144 -77 162 -95 235 -243 26
-52 58 -110 72 -128 21 -28 74 -65 95 -67 3 0 10 -3 14 -7 13 -14 99 -8 121 7
29 20 63 78 74 123 5 20 13 80 18 132 6 62 19 117 35 158 86 207 66 337 -60
397 -65 31 -158 32 -279 4z"/>
<path d="M2354 2970 c-30 -12 -70 -63 -85 -107 -7 -21 -13 -69 -13 -108 -2
-169 46 -264 135 -267 73 -2 89 2 123 37 95 95 80 341 -27 431 -30 25 -90 32
-133 14z"/>
<path d="M5283 2780 c-69 -16 -144 -62 -184 -112 -32 -42 -39 -57 -39 -96 0
-92 69 -162 147 -149 85 14 113 22 165 48 107 54 161 118 160 190 -1 85 -56
130 -159 128 -32 -1 -72 -4 -90 -9z"/>
<path d="M2843 2675 c-55 -24 -119 -72 -184 -140 -36 -36 -96 -84 -138 -109
-93 -54 -164 -115 -181 -156 -7 -18 -10 -48 -7 -73 5 -33 15 -51 55 -88 62
-60 96 -69 257 -69 150 0 184 -11 307 -101 84 -61 112 -72 158 -64 125 23 200
207 127 312 -35 50 -60 116 -92 241 -29 111 -59 168 -112 211 -60 50 -129 63
-190 36z"/>
<path d="M3427 2595 c-123 -45 -207 -156 -192 -254 9 -58 19 -77 66 -123 32
-33 44 -38 84 -38 128 0 225 108 241 268 14 131 -71 193 -199 147z"/>
<path d="M4094 1906 c-135 -63 -235 -216 -221 -338 12 -99 72 -153 171 -153
202 0 382 245 311 423 -36 88 -153 118 -261 68z"/>
<path d="M1635 1848 c-75 -28 -141 -94 -181 -183 -53 -114 -30 -258 49 -305
68 -42 180 -14 250 62 116 126 133 322 35 401 -41 33 -104 44 -153 25z"/>
<path d="M3565 1761 c-43 -26 -120 -111 -142 -157 -43 -89 -19 -212 49 -254
66 -40 176 -22 231 40 87 95 88 273 3 356 -41 40 -92 46 -141 15z"/>
<path d="M2030 1704 c-82 -36 -146 -110 -181 -211 -58 -169 23 -343 161 -343
60 0 200 96 200 137 0 7 3 13 8 13 13 0 40 73 52 140 34 187 -94 328 -240 264z"/>
<path d="M4465 1621 c-121 -39 -221 -168 -232 -299 -8 -104 51 -180 146 -190
43 -4 61 1 116 28 187 93 254 353 115 448 -33 22 -99 28 -145 13z"/>
<path d="M1170 1569 c-46 -10 -96 -68 -116 -135 -26 -90 -19 -232 13 -281 9
-13 12 -23 8 -23 -13 0 24 -30 50 -40 84 -32 170 6 211 93 21 46 23 64 21 157
-3 109 -17 152 -66 203 -23 24 -77 35 -121 26z"/>
<path d="M3760 1314 c-72 -24 -135 -38 -201 -43 -99 -9 -150 -27 -181 -65 -10
-12 -23 -27 -29 -35 -18 -21 -38 -82 -39 -119 0 -59 24 -99 79 -126 28 -15 55
-26 61 -26 28 0 158 -75 190 -109 20 -21 53 -68 75 -106 83 -142 158 -194 262
-182 91 10 123 77 123 255 0 80 6 136 20 190 44 177 36 274 -30 341 -70 71
-171 79 -330 25z"/>
<path d="M1611 1229 c-18 -6 -52 -22 -75 -37 -37 -24 -154 -117 -166 -133 -3
-4 -50 -30 -105 -57 -104 -53 -147 -84 -177 -130 -20 -31 -23 -87 -5 -118 49
-85 125 -128 229 -128 38 -1 68 -3 68 -6 0 -3 23 -6 52 -8 70 -4 140 -40 229
-116 87 -74 108 -86 145 -86 41 0 109 37 136 73 58 78 69 156 33 227 -35 69
-53 129 -69 232 -17 106 -36 165 -63 199 -73 90 -137 115 -232 88z"/>
<path d="M2162 1090 c-62 -22 -117 -67 -152 -124 -61 -101 0 -256 107 -272
134 -20 265 121 267 289 1 65 -1 70 -32 98 -27 24 -41 29 -85 29 -28 -1 -76
-9 -105 -20z"/>
<path d="M4455 1050 c-99 -20 -215 -98 -249 -167 -41 -81 0 -190 80 -212 44
-11 121 7 194 45 80 42 98 57 138 113 25 34 32 54 32 90 0 50 -26 103 -58 120
-29 16 -92 21 -137 11z"/>
</g>
</svg>
